<svg xmlns="http://www.w3.org/2000/svg" xmlns:xlink="http://www.w3.org/1999/xlink" version="1.1" id="Layer_1" x="0px" y="0px" width="100px" height="100px" viewBox="0 0 100 100" enable-background="new 0 0 100 100" xml:space="preserve">
<path fill-rule="evenodd" clip-rule="evenodd" d="M53.198,48.326c-1.437-0.483-3.68-1.267-5.946-1.983  c-0.842-0.267-1.758-0.608-2.599-0.519c-2.07,0.221-3.883-0.195-5.583-1.398c-0.46-0.325-1.149-0.336-1.735-0.474  c-0.101-0.025-0.226,0.052-0.325,0.026c-2.973-0.755-6.007-1.342-8.893-2.35c-1.585-0.553-1.629-1.901-0.471-2.749  c5.767-4.219,11.971-7.689,18.563-10.404c4.814-1.982,9.774-3.603,15.081-3.643c4.261-0.032,7.938,1.226,10.166,5.123  c2.157,3.781,1.269,8.328-2.033,11.939C65.309,46.396,59.862,47.575,53.198,48.326z"/>
<path fill-rule="evenodd" clip-rule="evenodd" d="M90.897,43.945c-2.521-0.211-5.018-0.002-7.225-0.7  c-4.318-1.365-8.078-0.194-11.88,1.578c-1.44,0.67-2.952,1.185-4.568,1.824c2.057-2.553,3.985-4.834,5.779-7.219  c1.077-1.43,2.393-2.228,4.152-2.267c1.419-0.032,2.874-0.177,4.25,0.073c0.939,0.169,1.793,0.894,2.645,1.437  c1.354,0.86,2.598,1.922,4.026,2.617C89.285,41.873,90.448,42.319,90.897,43.945z"/>
<path fill-rule="evenodd" clip-rule="evenodd" d="M39.419,53.059c8.664-0.752,16.861-3.471,25.408-5.877  c-0.251,0.416-0.366,0.838-0.641,1.022c-1.896,1.273-3.732,2.676-5.761,3.689c-3.037,1.518-5.756,3.3-7.808,6.076  c-0.556,0.752-1.583,1.417-2.495,1.587c-1.669,0.305-2.496-0.733-2.252-2.423c0.342-2.379,0.093-2.622-2.409-2.895  c-1.38-0.151-2.739-0.498-4.109-0.754C39.375,53.341,39.399,53.199,39.419,53.059z"/>
<path fill-rule="evenodd" clip-rule="evenodd" d="M27.595,37.292c2.8-4.107,6.009-7.774,10.291-10.347  c4.937-2.964,10.297-4.833,15.925-5.923c0.929-0.179,1.951,0.119,2.929,0.196c-0.665,0.789-1.172,1.923-2.019,2.306  c-2.936,1.321-5.979,2.405-8.997,3.538c-6.394,2.396-12.569,5.165-17.61,9.953C27.978,37.144,27.769,37.2,27.595,37.292z"/>
<path fill-rule="evenodd" clip-rule="evenodd" d="M94.978,40.527c-0.286-0.469-0.609-0.823-0.736-1.238  c-1.533-5.003-5.376-7.842-9.637-10.267c-2.374-1.351-4.803-2.608-7.321-3.97c2.901-1.151,9.831,0.737,11.928,3.032  C93.879,33.193,96.441,38.444,94.978,40.527z"/>
<path fill-rule="evenodd" clip-rule="evenodd" d="M74.858,28.061c0.024-1.876,0.744-2.344,2.196-1.816  c4.069,1.481,7.471,4.039,10.82,6.692c1.979,1.566,4.01,3.054,4.979,5.518c0.04,0.101,0.114,0.191,0.137,0.297  c0.183,0.825,1.138,1.92-0.115,2.391c-1.327,0.498-0.916-1.111-1.413-1.671c-1.064-1.204-2.138-2.402-3.284-3.525  c-0.613-0.6-1.522-0.925-2.061-1.57c-2.111-2.526-4.863-3.792-8-4.434c-0.796-0.163-1.608-0.41-2.306-0.809  C75.325,28.854,75.023,28.255,74.858,28.061z"/>
<path fill-rule="evenodd" clip-rule="evenodd" d="M48.971,79.493c-0.233-0.435-0.468-0.869-0.716-1.325  c-0.908,0.784-1.615,1.393-2.572,2.22c-0.124-1.588,0.236-3.172-2.36-2.944c2.407-1.926,2.863-4.062,2.148-6.409  c-0.38-1.248-0.967-2.441-1.542-3.616c-1.478-3.027-1.327-4.233,1.023-6.567c0.278-0.278,1.001-0.554,1.155-0.42  c0.352,0.312,0.795,1.087,0.648,1.304c-2.38,3.538,0.077,6.768,0.633,10.079c0.256,1.53,1.068,2.963,1.556,4.462  c0.308,0.942,0.484,1.925,0.721,2.89C49.432,79.273,49.202,79.382,48.971,79.493z"/>
<path fill-rule="evenodd" clip-rule="evenodd" d="M74.553,23.675c-0.603,1.861-1.172,3.615-1.696,5.222  c-2.013-1.54-3.956-3.635-6.356-4.693c-2.391-1.054-5.238-1.068-8.05-1.567c0.39-1.169,1.644-1.638,2.915-1.563  c2.339,0.135,4.687,0.431,6.984,0.892C70.525,22.403,72.643,23.138,74.553,23.675z"/>
<path fill-rule="evenodd" clip-rule="evenodd" d="M20.429,51.037c-2.466,3.588-11.101,6.155-13.661,4.124  c0.399-0.368,0.76-0.736,1.157-1.063C8.262,53.822,8.654,53.613,9,53.343c2.431-1.892,4.828-3.723,8.252-2.353  C18.09,51.322,19.175,51.037,20.429,51.037z"/>
<path fill-rule="evenodd" clip-rule="evenodd" d="M74.005,30.667c1.728,0.263,3.389,0.467,5.029,0.78  c1.262,0.238,2.312,0.823,2.288,2.335c-0.021,1.464-1.225,1.691-2.271,1.928c-1.534,0.346-3.1,0.559-4.718,0.839  C74.226,34.623,74.12,32.702,74.005,30.667z"/>
<path fill-rule="evenodd" clip-rule="evenodd" d="M15.309,55.833c0.813-0.416,1.634-0.818,2.435-1.253  c0.771-0.42,1.699-0.711,2.251-1.333c2.493-2.808,5.33-2.992,8.68-1.194c-4.017,2.853-8.572,3.688-13.198,4.3  C15.42,56.179,15.365,56.005,15.309,55.833z"/>
<path fill-rule="evenodd" clip-rule="evenodd" d="M24.958,40.662c0.911,1.034,1.621,1.838,2.398,2.719  c-1.959,1.863-4.15,3.158-6.67,3.821c-0.515,0.135-1.555-0.153-1.687-0.499c-0.194-0.516-0.015-1.517,0.388-1.855  C21.143,43.382,23.037,42.081,24.958,40.662z"/>
<path fill-rule="evenodd" clip-rule="evenodd" d="M12.7,49.663c-2.438,1.423-4.644,2.838-6.966,4.02  c-1.333,0.68-3.5-0.659-4.448-2.474C4.353,49.782,11.564,48.578,12.7,49.663z"/>
<path fill-rule="evenodd" clip-rule="evenodd" d="M21.822,47.943c3.284-1.023,5.133-4.035,8.478-4.178  c0.763-0.035,1.545,0.431,2.427,0.699C30.367,47.986,24.69,49.923,21.822,47.943z"/>
<path fill-rule="evenodd" clip-rule="evenodd" d="M27.647,49.809c1.766-1.083,3.598-2.025,5.214-3.253  c1.289-0.979,2.638-1.2,4.127-1.124c0.353,0.019,0.698,0.199,1.072,0.313C36.19,48.906,30.089,52.223,27.647,49.809z"/>
<path fill-rule="evenodd" clip-rule="evenodd" d="M58.176,67.264c-0.298-0.182-0.595-0.365-0.902-0.551  c-0.295,0.571-0.559,1.085-0.981,1.902c-0.304-0.745-0.487-1.199-0.712-1.755c-0.491,0.08-1.008,0.16-1.709,0.274  c0.76-2.806-1.044-4.4-2.679-6.064c-0.567-0.574-1.171-1.142-0.386-1.92c0.79-0.784,1.33-0.185,1.888,0.422  c1.395,1.512,2.886,2.933,4.216,4.494c0.702,0.832,1.146,1.88,1.706,2.83C58.469,67.021,58.322,67.143,58.176,67.264z"/>
<path fill-rule="evenodd" clip-rule="evenodd" d="M40.326,58.96c-0.771-0.069-1.453-0.018-2.064-0.201  c-1.278-0.378-1.499-1.28-1.015-2.45c0.719-1.754,1.733-2.406,2.481-1.391c1.24,1.685,2.729,1.606,4.393,1.646  c0.231,0.006,0.697,0.686,0.62,0.886c-0.164,0.427-0.561,0.973-0.954,1.059C42.622,58.772,41.41,58.831,40.326,58.96z"/>
<path fill-rule="evenodd" clip-rule="evenodd" d="M42.737,47.017c-1.545,2.968-5.511,4.845-7.644,3.64  c1.444-1.297,2.722-2.759,4.304-3.729C40.148,46.468,41.476,46.95,42.737,47.017z"/>
<path fill-rule="evenodd" clip-rule="evenodd" d="M98.37,47.777c-1.703-2.06-5.317-1.763-6.044-5.15  c0.993-0.132,1.902-0.315,2.813-0.339c0.36-0.01,0.896,0.241,1.067,0.537c0.882,1.53,1.668,3.116,2.488,4.68  C98.588,47.597,98.479,47.687,98.37,47.777z"/>
<path fill-rule="evenodd" clip-rule="evenodd" d="M13.45,47.392c1.253-0.675,2.512-1.356,3.606-1.942  c0.365,1.546,0.687,2.921,1.01,4.291C16.295,50.128,14.404,49.287,13.45,47.392z"/>
<path fill-rule="evenodd" clip-rule="evenodd" d="M45.654,46.845c0.227,0.404,0.824,1.002,0.814,1.592  c-0.008,0.485-0.647,1.146-1.166,1.396c-1.174,0.563-2.445,0.916-3.7,1.082C42.784,49.727,43.969,48.541,45.654,46.845z"/>
<path fill-rule="evenodd" clip-rule="evenodd" d="M90.079,39.536c-1.732,0.807-2.624,0.213-3.251-0.837  c-0.193-0.324-0.159-0.784-0.23-1.182c0.452-0.035,1.06-0.271,1.329-0.065C88.717,38.052,89.373,38.828,90.079,39.536z"/>
<path fill-rule="evenodd" clip-rule="evenodd" d="M51.838,49.784c-1.439,0.193-2.879,0.385-4.491,0.604  c0.501-1.833,0.379-1.661,4.39-1.226C51.771,49.368,51.805,49.575,51.838,49.784z"/>
</svg>